<?xml version="1.0" encoding="utf-8"?>
<!-- Generator: Adobe Illustrator 24.1.1, SVG Export Plug-In . SVG Version: 6.00 Build 0)  -->
<svg version="1.1" id="Capa_1" xmlns="http://www.w3.org/2000/svg" xmlns:xlink="http://www.w3.org/1999/xlink" x="0px" y="0px"
	 viewBox="0 0 100 100" style="enable-background:new 0 0 100 100;" xml:space="preserve">
<style type="text/css">
	.st0{fill:#2F8DEB;}
	.st1{fill:#D1D1D1;}
	.st2{fill:#A0D6FA;}
</style>
<g>
	<path class="st0" d="M97.9,24.3c-3.7,1.8-7.4,3.7-11.2,5.4c-10.8,5.1-21.6,10-32.3,15.1c-2.9,1.4-5.7,1.5-8.7,0.1
		C32.3,38.6,18.8,32.3,5.3,26c-0.2-0.1-0.4-0.2-0.6-0.3C4,25,3.2,24.3,2.5,23.6c0.7-0.7,1.3-1.7,2.2-2.1C18.6,15,32.6,8.5,46.6,2
		c0.8-0.4,1.7-0.6,2.6-1c0.7,0,1.4,0,2.2,0c1.2,0.5,2.3,1,3.5,1.6c13.3,6.2,26.6,12.4,39.8,18.6c1.1,0.5,2.2,1.3,3.3,1.9
		C97.9,23.5,97.9,23.9,97.9,24.3z"/>
	<path class="st1" d="M2.1,75.7c3.9-1.8,7.7-3.8,11.7-5.1c1.4-0.5,3.6,0.2,5.1,0.9c8.7,3.9,17.4,8,26.1,12.2c3.4,1.7,6.6,1.7,10.1,0
		c8.6-4.1,17.3-8,25.9-12.1c3.1-1.5,6-1.5,9,0.1c1.8,0.9,3.7,1.6,5.4,2.6c0.9,0.5,1.7,1.3,2.5,1.9c0,0.1,0,0.3,0,0.4
		c-1,0.7-2,1.6-3.1,2.1c-14.5,6.8-29,13.5-43.5,20.3c-0.9,0-1.7,0-2.6,0C35.8,93,22.8,87,9.9,80.9c-2.6-1.2-5.2-2.6-7.8-3.9
		C2.1,76.6,2.1,76.1,2.1,75.7z"/>
	<path class="st2" d="M14.8,43.9c1.3,0.4,2.9,0.8,4.3,1.4c8.7,4,17.5,8,26.1,12.2c3.3,1.6,6.4,1.6,9.7,0c8.8-4.2,17.7-8.3,26.5-12.4
		c2.6-1.2,5.2-1.4,7.9-0.1c2.1,1,4.3,1.9,6.4,3c0.8,0.4,1.3,1.3,2,2c-0.7,0.7-1.3,1.6-2.1,2c-6.8,3.3-13.6,6.5-20.4,9.6
		c-6.9,3.3-14,6.4-20.9,9.7c-2.9,1.4-5.5,1.4-8.4,0C32.3,65,18.7,58.7,5.2,52.3c-0.7-0.3-1.3-0.6-1.9-1c-1-0.7-1.2-1.8-0.1-2.5
		C6.7,46.7,10.4,44.7,14.8,43.9z"/>
</g>
</svg>
